<?xml version="1.0" encoding="utf-8"?>
<!-- Generator: Adobe Illustrator 21.1.0, SVG Export Plug-In . SVG Version: 6.00 Build 0)  -->
<svg version="1.1" id="Layer_1" xmlns="http://www.w3.org/2000/svg" xmlns:xlink="http://www.w3.org/1999/xlink" x="0px" y="0px"
	 viewBox="0 0 100 100" style="enable-background:new 0 0 100 100;" xml:space="preserve">
<style type="text/css">
	.st0{fill:#8080F2;}
	.st1{fill:#4B32C3;}
</style>
<g>
	<path class="st0" d="M30.2,38l19-11c0.5-0.3,1.1-0.3,1.5,0l19,11c0.5,0.3,0.8,0.8,0.8,1.3v21.9c0,0.5-0.3,1.1-0.8,1.3l-19,11
		c-0.5,0.3-1.1,0.3-1.5,0l-19-11c-0.5-0.3-0.8-0.8-0.8-1.3V39.4C29.5,38.8,29.8,38.3,30.2,38"/>
	<path class="st1" d="M99.4,48L76.7,8.6c-0.8-1.4-2.3-2.5-4-2.5H27.3c-1.6,0-3.2,1.1-4,2.5L0.6,48c-0.8,1.4-0.8,3.2,0,4.7l22.7,39.2
		c0.8,1.4,2.3,2.2,4,2.2h45.4c1.6,0,3.2-0.7,4-2.1l22.7-39.2C100.2,51.1,100.2,49.5,99.4,48 M80.6,67c0,0.6-0.3,1.1-0.9,1.4
		L50.8,85.1c-0.5,0.3-1.1,0.3-1.6,0L20.3,68.4c-0.5-0.3-0.9-0.8-0.9-1.4V33.7c0-0.6,0.3-1.1,0.8-1.4l28.9-16.7
		c0.5-0.3,1.1-0.3,1.6,0l28.9,16.7c0.5,0.3,0.9,0.8,0.9,1.4V67z"/>
</g>
</svg>
