<?xml version="1.0" encoding="utf-8"?>
<!-- Generator: Adobe Illustrator 21.1.0, SVG Export Plug-In . SVG Version: 6.00 Build 0)  -->
<svg version="1.1" id="Layer_1" xmlns="http://www.w3.org/2000/svg" xmlns:xlink="http://www.w3.org/1999/xlink" x="0px" y="0px"
	 viewBox="0 0 100 100" style="enable-background:new 0 0 100 100;" xml:space="preserve">
<style type="text/css">
	.st0{opacity:0.7;fill:#FFCA20;enable-background:new    ;}
	.st1{opacity:0.9;fill:#FFCF39;enable-background:new    ;}
	.st2{opacity:0.7;fill:#FFE490;enable-background:new    ;}
	.st3{opacity:0.9;fill:#FCBC7C;enable-background:new    ;}
	.st4{opacity:0.8;fill:#F9A040;enable-background:new    ;}
	.st5{opacity:0.7;fill:#F9A040;enable-background:new    ;}
	.st6{opacity:0.7;fill:#FFC737;enable-background:new    ;}
</style>
<title>Flow logo</title>
<g>
	<path class="st0" d="M84.5,52.2l-28-28h28V52.2z"/>
	<path class="st0" d="M36.8,0l28,28h-28V0z"/>
	<path class="st1" d="M37.7,43.9l-28-28h33.7v28L37.7,43.9z M62.4,72l28,28h-28V72z"/>
	<path class="st2" d="M43.4,72l-28-28h28L43.4,72L43.4,72z M73.6,57.8L51.3,35.4h22.4L73.6,57.8z M76.2,97.4L50.8,72h25.4V97.4z"/>
	<path class="st3" d="M43.4,38.2l-28-28h28V38.2z"/>
	<path class="st4" d="M50.9,72l28,28h-28V72z"/>
	<path class="st5" d="M79.3,83.2l-28-28h28V83.2z"/>
	<path class="st1" d="M51.3,35.4L79,63.1H51.3C51.3,63.1,51.3,35.4,51.3,35.4z"/>
	<path class="st6" d="M43.4,99.9L9.6,66.1h33.8V99.9L43.4,99.9z"/>
</g>
</svg>
