<?xml version="1.0" encoding="utf-8"?>
<!-- Generator: Adobe Illustrator 21.1.0, SVG Export Plug-In . SVG Version: 6.00 Build 0)  -->
<svg version="1.1" id="Layer_1" xmlns="http://www.w3.org/2000/svg" xmlns:xlink="http://www.w3.org/1999/xlink" x="0px" y="0px"
	 viewBox="0 0 100 100" style="enable-background:new 0 0 100 100;" xml:space="preserve">
<g>
	<path d="M88.7,31.9c-0.3,1.2-0.7,2.1-1.3,2.7L87,34.3c0.4-1.1,0.7-1.8,0.6-1.9l-0.1-0.2c-0.1,0-0.3,0.4-0.6,1.2l-0.2,0
		c0-0.1,0-0.3-0.1-0.4l-0.1,0c-1.9,5.4-2.8,7.9-4.6,12c-0.3,1.1-0.6,1.6-0.8,1.8c0,0.1,0.1,0.2,0.2,0.2c0,0.5-0.1,1-0.4,1.5
		c-0.8,2.4-1.4,3.7-1.6,3.9l0.2,1.1c0,0.1,0,0.2-0.2,0.2l-0.2,0c0-0.3-0.1-0.5-0.3-0.4l-0.1,0c-0.2,0.4-0.4,0.8-0.6,1.4l0.2,0
		c0.3-0.2,0.4-0.4,0.4-0.6l0.4,0l0.2,0.1c-0.2,0.3-0.3,0.5-0.2,0.7l0.1,0.2l-0.2,0.6l0,0.1c0.2,0,0.5,0,0.7,0.2
		c0.2,0,0.4-0.1,0.6-0.2c0.2,0,1,0,2.5,0l0.7-0.2c0.9,0,1,0,1.8,0l0.3,0l0.2-0.1l0,0.1c0.8-0.1,0.8,0,1.5,0.1l0,0.1l-0.4,0l0,0.2
		c0.1,0,0.2,0,0.3-0.1c0.1,0,0.2,0,0.2,0.2c-0.2,0-0.4,0.1-0.6,0.1l-0.2-0.1c-0.3,0.1-0.2,0.1-0.4,0.1l-0.3-0.1c0,0,0,0.1-0.1,0.1
		c0,0.1,0.1,0.2,0.2,0.2l0.4,0l-0.2-0.1c0,0,0,0.1,0.1,0.1l1.6-0.1l0.6-0.1c0,0,0,0.1,0.1,0.1l0.3-0.1l0.6,0c0.4,0,0.4-0.1,1.4-0.2
		c0,0,0-0.1,0.1-0.1v0.1c1.8-0.3,1.6-0.3,2-0.4l-0.1-0.2c-0.5,0.1-0.5,0-0.8,0.1L90.5,55l0-0.1l0.8-0.1l0.3,0l0.1-0.1l0,0.1
		c1.1-0.1,1.4,0.2,6.4-0.9c0.3,0,0.2-0.2,0.4-0.7c-0.1,0-0.2,0-0.3-0.1c-0.4,0.2-0.6,0.1-1.4,0.2c-0.1,0-0.1,0-0.1-0.2v-0.1l0.8,0
		c0.1,0,0.4,0,0.8-0.3c0.1,0-0.1,0.1,0,0.1l0.1,0c0.1,0,0.1-0.1,0.1-0.2l-0.1-0.2c-0.5,0-0.8,0.1-1.2,0.3l0-0.1l-0.6,0.1
		c0-0.2-0.1-0.3-0.1-0.3l-0.3,0c-0.4,0-0.6,0-0.7,0.2c0-0.1,0-0.1-0.1-0.1l-0.4,0l-0.2,0.1c0-0.1,0-0.1-0.1-0.1l-0.1,0.1l0-0.1
		l-0.5,0l-0.1,0l0,0.2l0.3,0.1l0.2,0c0.1,0,0.2,0.1,0.3,0.1l0.2-0.1v0.1c-1.2,0.3-1.2,0.2-2,0.4c-0.1-0.1-0.2-0.1-0.2-0.1
		c-0.1,0.1,0.1,0,0,0c-0.1,0-0.2,0-0.2-0.2l0.4,0c0,0,0,0,0.3,0.1c0.3-0.2,0.3-0.2,0.5-0.2l0-0.2c-1.1,0.2-0.7,0.1-2.1,0.2h-0.1
		l0-0.2c1.8-0.2,1.2-0.1,1.8-0.3c0,0.1,0,0.1,0.1,0.1c0.1-0.1,0.2-0.1,0.3-0.1l0.1,0c0.6,0,0.9,0.1,2.1-0.3v0.1l0.2-0.1l0.2,0
		c0-0.2,0.3-0.2,0.4-0.2l0-0.2c-2.2,0.5-2.8,0.3-3.4,0.5v-0.1c-0.6,0.1-0.6,0-0.8,0.1c0,0-0.1,0-0.2,0.1c0-0.1,0-0.1-0.1-0.1
		c-0.1,0,0,0-0.1,0.1l0.1-0.1l-1.9,0.3c0,0,0-0.1-0.1-0.1c-1,0.2-0.7,0.2-2,0.4c-0.1,0-0.1,0-0.2,0.1c0,0,0-0.1-0.1-0.1l-0.8,0.1
		L86.6,53c0,0,0-0.1-0.1-0.1C86.2,53,86,53,85.7,53h0c-0.1,0,0.1,0,0-0.1l-0.2,0.1c-0.2,0-0.1,0-0.9,0c-1.4,0.2-1.3,0.2-1.4,0.2
		l-0.5,0c0,0,0,0.1-0.1,0.1c-0.6-0.1-0.9-0.2-0.9-0.3c0.1-0.6,0.2-0.9,0.4-0.9l0.1,0L82,52.3l0.1,0c0.2-0.1,0.3-0.2,0.3-0.3l0-0.2
		l-0.2,0l0-0.2c0-0.1,0-0.3,0-0.4l0.4-0.7l0,0.2l0.2,0l0-0.2l-0.1-0.2c0.1-0.1,0.3-0.2,0.4-0.2l0-0.1l-0.3,0l0-0.3
		c0.6-1.2,0.8-1.9,0.8-2l0.2,0.1c0.1,0,0.2-0.1,0.2-0.2l-0.2,0v-0.1c0-0.1,0-0.3,0.1-0.4c0.3-0.3,0.4-0.6,0.4-1c0.1,0,0.1,0,0.1,0.1
		c0.3-0.1,0.5-0.5,0.6-1.2c0.5-0.8,1.1-2.5,2-5c1.6-4.4,1.6-4.9,1.8-5.9l-0.2,0c0,0.1,0,0.3-0.1,0.4c-0.1,0-0.2-0.1-0.3-0.1v-0.1
		c0-0.4,0.1-0.8,0.5-1.4h0.1l0.2,0.6l0.2,0c0,0,0-0.3,0.1-0.8c0-0.1-0.1-0.1-0.2-0.2l-0.2,0.1c0-0.1,0-0.5,0-1L88.7,31.9L88.7,31.9z
		 M86.3,34.7L86.3,34.7c0,0.2-0.2,0.4-0.3,0.4l0-0.3C86.1,34.8,86.2,34.8,86.3,34.7z M85.5,36.7c0.2-0.8,0.4-1.3,0.6-1.4l0,0.1
		c-0.1,0.8-0.3,1.1-0.5,1.2l0,0.5c-0.2,0.2-0.3,0.4-0.2,0.6l-0.1,0l0-0.7C85.4,37,85.5,36.9,85.5,36.7L85.5,36.7z M85.2,37.7
		c0,0.1-0.1,0.4-0.2,0.8l-0.1,0l0-0.3C85,37.9,85.1,37.8,85.2,37.7L85.2,37.7z M79.8,49.6l0.1,0.2c0.1,0,0.2-0.1,0.2-0.2l0-0.1
		l-0.1,0L79.8,49.6z M82.4,51.7L82.4,51.7c0.1,0.1,0.3-0.2,0.4-0.7L82.6,51C82.5,51.4,82.4,51.6,82.4,51.7L82.4,51.7z M98.9,52.3
		L98.9,52.3l-0.2,0.3l0.3-0.1h0l0-0.2L98.9,52.3L98.9,52.3c0,0,0.3-0.1,0.1-0.1C98.9,52.3,99.1,52.3,98.9,52.3z M99.6,52.9l0.4,0
		c0-0.1-0.3-0.1-0.4-0.1h-0.1L99.6,52.9L99.6,52.9z M91.8,53.1l0.1,0.2c0,0,0-0.1,0.1-0.1l0.1,0.2l-0.4,0
		C91.6,53.1,91.7,53.1,91.8,53.1L91.8,53.1z M90.4,53.2c0.1,0,0.2,0.1,0.2,0.2h-0.5v-0.1C90.3,53.3,90.3,53.3,90.4,53.2z M91.5,53.1
		L91.5,53.1l-0.4,0.1l0-0.1L91.5,53.1z M87.7,53.5C87.7,53.6,87.7,53.6,87.7,53.5c0.7,0,0.6,0,0.9-0.1c0.1,0,0.1,0,0.2,0.2l-1.7,0.1
		l0.2,0.1l0-0.1l-0.6,0l0-0.1l0.6,0L87.7,53.5L87.7,53.5z M89.4,53.4L89.4,53.4c0,0.1,0.2,0.1,0.1,0.2c-0.4,0-0.4-0.1-0.6,0v-0.1
		L89.4,53.4L89.4,53.4z M89.8,53.3L89.8,53.3l-0.3,0.1v-0.1L89.8,53.3z M79.4,55l0,0.3c-0.1,0-0.2,0-0.2-0.2V55L79.4,55L79.4,55z
		 M93.4,54.8l0,0.2l0.3,0l-0.1-0.1l0,0.1l0.3-0.1c2.2-0.2,2.5-0.1,2.5-0.4v-0.1C94.1,54.8,93.8,54.7,93.4,54.8L93.4,54.8z
		 M96.9,54.5l0.3,0.1l0-0.2l-0.3-0.1L96.9,54.5z M87.2,55.1C87.3,55.1,87.1,55.2,87.2,55.1l1.2,0l0,0.1c-0.3,0-0.5,0.1-0.6,0.1
		c0-0.1,0-0.1-0.1-0.1l-0.5,0L87.2,55.1C87.3,55.2,87.1,55.2,87.2,55.1L87.2,55.1z M92.5,55l0.1,0.2c0.4-0.1,0.2-0.1,0.3-0.1
		c0,0.1,0,0.1,0.1,0.1l0.3,0l0-0.2L92.5,55L92.5,55L92.5,55z M86,55.7L86,55.7l-0.1-0.2H86L86,55.7z M80.9,56.3L80.9,56.3l3-0.1
		l0-0.2l-2.4,0.2L81,56.1L80.9,56.3L80.9,56.3z M84.3,56.1L84.3,56.1l0-0.2h0L84.3,56.1z M38.6,40.3c-2.1,2.5-3.2,3.9-3.3,4.2
		c-0.9,0.9-1.3,1.4-1.2,1.6c-0.2,0.1-0.3,0.3-0.3,0.5c-0.1,0-0.1,0-0.1-0.1c-0.4,0.6-0.9,1-1.6,1.2l-0.8,0.2c-0.1,0-0.1,0.1-0.1,0.2
		l0,0.1l0.3-0.1l0,0.1l-0.7,0.2l-1.2,0.3l-0.6,0c-0.1,0.1,0.5,0,0.3,0L28.5,49c-0.5,0.1-0.7,0.1-0.8-0.1l-0.1,0c0,0.2,0,0.3-0.1,0.3
		l0.1,0l-0.1-0.3l-1.4,0.3l0.1,0.1c0-0.1-0.1-0.1-0.2,0L26,49.4l-0.2,0c-0.2,0.1-0.3,0.2-0.4,0.2l-0.2,0c-0.6,0.3-0.1,0.3-0.2,0.3
		l0,0.2l0.3-0.1l0.5,0l0,0.2c-1.9,0.5-0.5,0.2-1,0.3l-0.1,0l0,0.2l0.3-0.1l0,0.1c-0.4,0.1-0.6,0.2-0.7,0.2l0-0.1
		c-0.5,0.1-1,0.5-1.5,1.1c0.1,0.4-1,0.8,4-0.4c0.3,0,0.5,0,0.6,0c0-0.1,0-0.1,0.1-0.1c0.6-0.1,0.3,0,0.6,0l1.1-0.2l-0.2,0.1
		c0,0,0-0.1,0.1-0.1c0.1,0,0.3,0,0.4,0l0.1,0.3l-4.3,6.8l-0.9,1.2L24,60.8l0.1,0l0.5-0.2l-0.1,0.6l0,0.2l0.1,0.2
		c-0.1,0-0.1,0-0.1,0.1l0,0.1l0.2,0c0.3-0.2,0.4-0.5,0.4-0.7c0.3,0,0.5,0.1,0.6,0l0,0.1c-0.2,0-0.3,0.2-0.3,0.4l0,0.1l0.1,0
		c1.5-1.7,5.3-7.4,8.4-11.4c-0.1-0.4,1.5-1,4.7-1.8l0.1,0c0.1,0.5-0.1,1.7-0.8,3.7c-0.4,1.2-0.6,1.8-0.6,1.9
		c-0.5,1.6-0.8,2.4-0.7,2.6l-1.2,3.8c-0.8,1.9-1.3,4-1.7,6.1c0.1,0,0.2,0,0.3,0l0.2-0.1c0,0.1,0,0.1,0.1,0.1l-0.1-0.3l0.5,0
		c0.1,0,0.3-0.2,0.4-0.6c0-0.5,0.1-0.8,0.3-0.8c0.3-1.2,0.5-1.8,0.6-1.8c0.3-1.2,0.5-1.9,0.7-2.1c0.4-1.6,0.8-2.4,1-2.4l0,0.2
		l-0.3,0.8c-0.6,2.5-1.1,4.4-1.7,5.9l0.2,0.7l0.1,0c1.4-3,3.4-8.8,6-17.6c0.1-0.8,0.4-1.4,1.1-1.8l-0.1-0.1l0-0.1
		c0.3-0.1,0.5-0.2,0.6-0.3c0-0.1-0.3-0.2-0.8-0.3l1.5-6.6c0.5-2,0.8-3.7,0.9-5.2l0-0.1c-0.3-0.2-0.6-0.5-0.9-0.8v-0.4l0-0.1l-0.1,0
		C43.3,34.3,41.4,36.8,38.6,40.3L38.6,40.3z M40.8,41.8c0.1,0.3,0,1-0.4,1.9c-0.1,1.2-0.5,1.8-1.3,2l0-0.1l-0.7,0.2L38.2,46
		c-0.1,0-0.3,0-0.4,0l-0.1-0.3c0-0.1,0.9-1.4,2.8-3.9L40.8,41.8L40.8,41.8z M39.3,45.9l0.2,0l0,0.2c-1,0.3-1.6,0.5-1.7,0.5
		c-0.1,0-0.2,0.1-0.3,0.2c0-0.1-0.1-0.1-0.4,0C37.1,46.5,37.8,46.2,39.3,45.9L39.3,45.9z M29.1,48.6l0.2,0l0-0.2l-0.2,0L29.1,48.6z
		 M32.1,47.9l0,0.2l-0.5,0l0-0.1L32.1,47.9z M26.4,49.7L26.4,49.7l-0.3,0.2l0-0.1L26.4,49.7z M25.8,50.9L25.8,50.9l-0.4,0.2l0-0.2
		L25.8,50.9z M26.7,50.7L26.7,50.7L26.1,51l0-0.1L26.7,50.7z M27.9,50.5L27.9,50.5L26.1,51l0-0.2C27.1,50.7,27,50.8,27.9,50.5z
		 M36.9,48.5l0.1,0.2c-0.2,0-0.4,0.1-0.5,0.2l-0.2,0c-0.3,0.1-0.6,0.2-0.8,0.3l-0.2,0c-0.1,0-0.2,0-0.2-0.1l1.4-0.3L36.9,48.5
		L36.9,48.5z M37.9,48.2l1-0.2l0,0.1c-0.5,0.1-0.9,0.2-1.2,0.4l0-0.1C37.7,48.4,37.8,48.3,37.9,48.2z M27.8,51l0.5-0.1l0,0.2
		c-0.2,0,0,0-0.3,0.2c-0.5,0-0.4,0-1.1,0.2l0-0.1L27.8,51z M29,50.8c0.1,0,0.2,0,0.2,0.1L29,51c-0.1,0-0.2,0-0.2-0.1L29,50.8z
		 M23.9,61.1L23.9,61.1c0.1,0.1,0.2,0,0.2-0.1l0-0.1C23.9,60.9,23.9,60.9,23.9,61.1z M24.3,62.7c0,0.1,0.1,0.2,0.2,0.1
		c0.1,0,0.2-0.1,0.1-0.2l0-0.1l-0.2,0L24.3,62.7L24.3,62.7z M34.7,65.5c0.1,0,0.2,0,0.2,0.1l0,0.1l-0.4,0.1c0-0.1,0-0.2,0-0.3
		L34.7,65.5z"/>
	<path d="M49.8,35.3c-0.8,0.6-1.8,1.2-2.9,1.8l0,0.2c0.1,0,0.2,0,0.3-0.1c0.1,0,0.2,0,0.2,0.2l0.2-0.1h0.1v0.1c0,0.1-0.7,0.6-2,1.6
		l0.1,0.2h-0.1L45.5,39c0,0.1-0.1,0.1-0.3,0.1v0.1l0.2,0.3c-0.1,0-0.2,0-0.3-0.1c-0.4,0-0.9,0.4-1.3,0.9l0.1,0.2
		c0.4-0.3,0.6-0.5,0.7-0.5l0,0.3c-0.1,0-0.2,0-0.3,0.1l0.2,0.3c0.4-0.5,0.9-0.9,1.5-1.2c0.3,0.1,0.4,0.2,0.4,0.2l0.2,0
		c1.5-1.1,2.9-1.8,4.3-2.3l0,0.2c-0.3,0.4-0.4,0.6-0.5,0.6c0,0.1,0,0.2,0.1,0.4c0,0.2-0.6,1.9-1.9,4.9c-3,7-5.5,12.2-7.5,15.5
		c0,0.1,0,0.2,0.1,0.3c0.5-0.1,0.8-0.2,0.9-0.4h0.1l0,0.2l0.2,0l0.2-0.1c0,0,0.1,0.1,0.2,0.1l0,0.2c0,0.2-0.1,0.5-0.3,0.8
		c-0.2,0.2-0.4,0.7-0.7,1.5l0,0.1l0.2,0c0.8-0.9,1.4-1.8,1.8-2.7c2.4-0.7,4.2-1.4,5.4-2c1.3-0.1,2.2-0.4,2.9-1l0-0.1L51.7,56l-0.1,0
		l0-0.1c0.9-0.1,1.6-0.3,1.9-0.6c1.8-1.4,3.1-2.4,4.1-2.9c2.8-2.1,4.2-4.1,4-6c0-0.2-0.6-1-1.9-2.3c0-0.3,0.4-0.6,1.3-1.1l2.5-2.2
		c0.6-0.7,0.9-1.8,1-3.4l0-0.4c-0.1-1.1-0.9-2-2.4-2.7c-0.9-0.6-2.5-0.9-4.8-1C55.4,33.4,52.9,34.1,49.8,35.3L49.8,35.3z M63.1,35.5
		L63,35.7l-2.7-1.2C62.1,34.6,63,34.9,63.1,35.5z M51.9,43.1c0.2-1,0.4-1.6,0.6-1.7l2.1-4.6c0-0.3,0.4-0.5,1.3-0.7l0.3,0l0,0.3
		c0.9-0.1,1.4-0.2,1.6-0.2c1.6-0.1,2.5,0.2,2.5,1l0.2,0l0-0.4l0.2,0c0.5,0.3,0.7,0.6,0.8,0.9c0,0.3-0.1,0.6-0.4,1
		c-0.1,0-0.2-0.1-0.2-0.3l-0.2,0l-0.1,0.6c-0.8,1.3-1.4,1.9-1.8,1.9c-0.3,0.5-0.5,0.7-0.6,0.7c-0.3,0.3-1,0.8-2.1,1.6
		c-0.4,0-1.8,0.6-4.3,1.7c-0.1,0-0.3-0.1-0.4,0l0-0.2C51.4,44.1,51.6,43.7,51.9,43.1L51.9,43.1z M63.3,37.4l0,0.2
		c-0.1,0-0.3-0.3-0.6-0.9l0-0.2C62.9,36.5,63.1,36.8,63.3,37.4z M45.3,39.6L45.3,39.6c0,0.1-0.1,0.1-0.3,0.2h-0.1l0-0.2L45.3,39.6z
		 M51.2,39.5l0,0.3c-0.1,0-0.2,0.1-0.4,0.4l0-0.2c0.2-0.2,0.2-0.4,0.2-0.5H51.2z M50.3,41.4l0,0.4l-0.1,0L50.3,41.4L50.3,41.4z
		 M50.1,42.1c0,0.3-0.1,0.5-0.2,0.5l-0.1,0c0.1-0.2,0.2-0.4,0.1-0.5L50.1,42.1z M49.7,43L49.7,43l-0.1,0.4l-0.2,0l0-0.1
		C49.5,43.3,49.6,43.2,49.7,43L49.7,43z M49.3,43.9l-0.1,0.5h-0.1l0-0.5H49.3z M59.3,44.2l0.4,0.2c0,0.1,0,0.2-0.2,0.2
		c-0.2-0.1-0.3-0.2-0.4-0.1v-0.3L59.3,44.2z M51.4,45.3l0,0.2l-0.4,0l0-0.2L51.4,45.3z M57.8,45.9c0.3,0.1,0.4,0.2,0.4,0.3v0.1
		c-0.3,0-0.5-0.1-0.7-0.4L57.8,45.9z M49.6,47.9c1.1-0.1,2.9-0.6,5.3-1.6l0.6,0c1.2-0.1,2.1,0.1,2.7,0.7l0,0.4
		c-0.4,1.3-0.9,2-1.5,2.3l-2.5,2c-1.8,1.2-2.8,1.8-3,1.8c-2.9,1.6-4.8,2.4-5.5,2.5l-0.1,0C45.8,55.6,47.1,53,49.6,47.9L49.6,47.9z
		 M52.3,46.9L52.3,46.9L51.9,47l0-0.1L52.3,46.9z M61.2,46.5l0.1,0.8c-0.1,0.2-0.2,0.3-0.3,0.3l-0.1-1.3
		C61.1,46.3,61.2,46.4,61.2,46.5L61.2,46.5z M46.1,52.9c-0.1,0.6-0.3,0.9-0.4,0.9v-0.1C45.7,53.4,45.8,53.1,46.1,52.9z M48.6,56.4
		c0.7-0.1,2.7-1.2,5.9-3.1l0,0.2c0,0.1-0.3,0.3-0.8,0.7c-1.6,0.8-2.6,1.4-2.9,1.6c-1.8,0.6-2.7,1-2.6,1.2c-1.6,0.6-2.6,1.1-3.1,1.4
		c-0.1,0-0.3,0-0.5-0.1c0-0.3,0.1-0.6,0.4-0.8c0.3,0,0.5,0,0.8,0.1c0.3-0.1,0.8-0.3,1.5-0.5l0-0.2l-0.6,0c0.1-0.1,0.6-0.4,1.7-0.8
		l0.3,0v0.1c-0.5,0-0.8,0.2-0.8,0.5c0,0.1,0.1,0.2,0.2,0.2C48.4,56.6,48.6,56.4,48.6,56.4L48.6,56.4z M45.5,54.1L45.5,54.1
		c0,0.2,0,0.3-0.2,0.3l0-0.1C45.3,54.2,45.4,54.2,45.5,54.1L45.5,54.1z M50.2,55.4c-0.2,0-0.7,0.2-1.3,0.6l-0.1,0l0-0.2
		c0.5,0,0.9-0.2,1.2-0.6C50.1,55.2,50.1,55.3,50.2,55.4L50.2,55.4z M45.4,56.7l0.3,0l0,0.1c-0.1,0-0.2,0-0.3,0.1l-0.2,0
		C45.2,56.8,45.2,56.8,45.4,56.7z M43.4,57.8l0.2,0.1c-0.1,0.6-0.2,0.9-0.5,0.9c-0.2-0.1-0.4-0.1-0.6-0.1l0-0.3c0-0.1,0-0.2,0.2-0.2
		c0.1,0,0.2,0.1,0.2,0.3C43.2,58,43.4,57.8,43.4,57.8L43.4,57.8z M11.4,34.5c-1.1,0.8-2.4,1.6-3.8,2.4l0,0.2c0.1,0,0.2-0.1,0.4-0.1
		c0.2,0,0.3,0,0.3,0.2l0.3-0.1l0.1,0l0,0.1c0,0.1-0.9,0.8-2.7,2.1l0.1,0.2l-0.1,0l-0.3-0.1c0,0.1-0.1,0.1-0.4,0.1l0,0.1L5.7,40
		c-0.1,0-0.2,0-0.4-0.1c-0.6,0-1.1,0.5-1.7,1.3l0.1,0.2c0.5-0.4,0.8-0.7,0.8-0.7l0,0.4c-0.1,0-0.2,0.1-0.4,0.1l0.3,0.5
		c0.6-0.6,1.2-1.2,1.9-1.6C6.9,40.2,7,40.3,7,40.4l0.3,0C9.2,39,11.1,38,13,37.3l0,0.2c-0.3,0.5-0.6,0.8-0.7,0.8
		c0,0.2,0.1,0.3,0.2,0.5c0,0.3-0.8,2.5-2.5,6.4C6,54.5,2.7,61.3,0,65.8c0,0.1,0.1,0.2,0.1,0.4c0.7-0.2,1.1-0.3,1.3-0.5l0.1,0l0,0.2
		l0.2,0l0.3-0.1c0,0.1,0.1,0.1,0.3,0.1l0,0.2c0,0.2-0.1,0.6-0.4,1.1c-0.3,0.3-0.6,0.9-0.9,1.9l0,0.1l0.2,0c1.1-1.2,1.9-2.4,2.4-3.5
		c3.1-0.9,5.5-1.8,7.1-2.7c1.6-0.1,2.9-0.6,3.8-1.3l0-0.1L14,61.8l-0.1,0l0-0.1c1.2-0.2,2.1-0.5,2.5-0.8c2.4-1.8,4.1-3.1,5.3-3.9
		c3.7-2.7,5.5-5.4,5.3-7.9c0-0.3-0.8-1.3-2.5-3.1c0-0.3,0.5-0.8,1.7-1.5l3.2-2.9c0.7-0.9,1.2-2.4,1.3-4.5l0-0.5
		c-0.1-1.5-1.2-2.6-3.2-3.5c-1.2-0.8-3.3-1.2-6.3-1.3C18.7,32.1,15.4,33,11.4,34.5L11.4,34.5z M28.9,34.7L28.8,35l-3.6-1.5
		C27.6,33.6,28.8,34,28.9,34.7z M14.2,44.8c0.2-1.3,0.5-2.1,0.8-2.3l2.7-6.1c0-0.4,0.5-0.7,1.7-0.9l0.4,0l0,0.3
		c1.2-0.2,1.9-0.3,2.2-0.3c2.2-0.2,3.3,0.2,3.4,1.3l0.2,0l0-0.6l0.3,0c0.6,0.3,1,0.8,1,1.3c0,0.3-0.1,0.8-0.6,1.3
		c-0.2,0-0.3-0.1-0.3-0.3l-0.3,0l-0.1,0.7c-1.1,1.6-1.9,2.5-2.4,2.5c-0.4,0.6-0.7,0.9-0.8,0.9c-0.3,0.4-1.3,1.1-2.8,2.1
		c-0.5,0-2.4,0.8-5.6,2.2c-0.2-0.1-0.3-0.1-0.5-0.1l0-0.2C13.6,46.1,13.8,45.5,14.2,44.8L14.2,44.8z M29.2,37.3l0,0.2
		c-0.1,0-0.4-0.4-0.7-1.2l0-0.2C28.7,36.1,29,36.5,29.2,37.3z M5.4,40.2l0,0.1c-0.1,0-0.2,0.1-0.4,0.1l-0.1,0l0-0.2L5.4,40.2
		L5.4,40.2z M13.3,40l0,0.4c-0.1,0-0.3,0.2-0.5,0.5l0-0.2c0.2-0.3,0.3-0.5,0.3-0.6L13.3,40L13.3,40z M12.1,42.5l0,0.5L12,43l0-0.5
		L12.1,42.5z M11.8,43.4c0,0.4-0.1,0.6-0.3,0.6l-0.1,0c0.1-0.3,0.2-0.5,0.2-0.6L11.8,43.4z M11.2,44.7l0,0.1L11,45.2l-0.2,0l0-0.1
		c0.2,0,0.4-0.1,0.3-0.4L11.2,44.7z M10.7,45.8l-0.1,0.6l-0.1,0l0-0.6L10.7,45.8z M23.9,46.3l0.5,0.3c0,0.2-0.1,0.3-0.2,0.3
		c-0.2-0.1-0.4-0.2-0.5-0.2l0-0.4L23.9,46.3L23.9,46.3z M13.6,47.7l0,0.2l-0.5,0l0-0.2L13.6,47.7z M21.9,48.5
		c0.4,0.2,0.5,0.3,0.6,0.5l0,0.1c-0.3,0-0.7-0.1-0.9-0.5L21.9,48.5z M11.1,51.1c1.5-0.1,3.8-0.8,6.9-2.1l0.8-0.1
		c1.6-0.1,2.8,0.2,3.6,0.9l0,0.5c-0.6,1.7-1.2,2.7-1.9,3L17.3,56c-2.4,1.6-3.7,2.4-3.9,2.4c-3.9,2.1-6.3,3.2-7.2,3.3l-0.1,0
		C6.1,61.3,7.8,57.8,11.1,51.1L11.1,51.1z M14.7,49.8l0,0.1l-0.5,0l0-0.1L14.7,49.8z M26.4,49.2l0.1,1c-0.1,0.3-0.2,0.4-0.4,0.4
		L26,48.9C26.2,49,26.4,49.1,26.4,49.2L26.4,49.2z M6.5,57.6c-0.2,0.8-0.3,1.3-0.5,1.3l0-0.1C6,58.4,6.1,58,6.5,57.6L6.5,57.6z
		 M9.8,62.2c0.9-0.2,3.5-1.5,7.8-4.1l0,0.2c0,0.1-0.4,0.4-1.1,0.9c-2.2,1.1-3.4,1.8-3.8,2.2c-2.3,0.8-3.5,1.3-3.5,1.5
		c-2.1,0.8-3.5,1.4-4.1,1.8c-0.1,0-0.4,0-0.7-0.2c0-0.4,0.1-0.8,0.6-1c0.4,0,0.7,0,1,0.2c0.4-0.2,1.1-0.4,2-0.7l0-0.2L7.3,63
		c0.1-0.1,0.8-0.5,2.2-1l0.4,0l0,0.1c-0.7,0-1,0.3-1.1,0.6c0,0.1,0.1,0.2,0.3,0.2C9.5,62.5,9.8,62.3,9.8,62.2L9.8,62.2z M5.8,59.3
		l0,0.1c0,0.2-0.1,0.3-0.2,0.3l0-0.1C5.5,59.4,5.6,59.3,5.8,59.3z M11.9,61c-0.3,0-0.9,0.3-1.7,0.8l-0.1,0l0-0.2
		c0.6,0,1.2-0.3,1.6-0.7C11.8,60.7,11.9,60.8,11.9,61L11.9,61z M5.5,62.7l0.4,0l0,0.1c-0.1,0-0.2,0.1-0.4,0.1l-0.2,0
		C5.3,62.9,5.4,62.8,5.5,62.7L5.5,62.7z M3,64.2l0.3,0.1c-0.1,0.7-0.3,1.1-0.7,1.1c-0.3-0.1-0.6-0.2-0.8-0.2l0-0.4
		c0-0.1,0.1-0.2,0.2-0.3c0.2,0,0.3,0.1,0.3,0.3C2.7,64.4,2.9,64.2,3,64.2z M75.3,32.1L75.1,32l-3.5,0.5c-0.1-0.1-0.3-0.1-0.5-0.1
		c-0.2,0-0.5,0.1-0.9,0.2l-1.7,0.7l0.1,0.2c0.1,0,0.2,0,0.3-0.1l0.6,0l-0.1,0.6c-0.5,0.2-0.9,0.6-0.9,1.1c-0.8,0.4-1.2,0.6-1.2,0.8
		l0,0.1l0.1,0l0.2-0.1l0.3,0.3l0,0.4c0,0.1-1.4,3.1-4.1,8.7c-2.4,5.5-3.7,8.5-3.8,9c-0.8,0.2-1.3,0.6-1.4,1c0,0.1,0.3,0.2,0.7,0.3
		l0,0.2l-0.2,0.4l0,0.4c0,0.2,0.6,0.4,1.8,0.5c0-0.1,0-0.1,0.1-0.1c0,0.3,0,0.8-0.2,1.6l0.1,0c0.5-0.7,0.7-1.1,0.7-1.4l0.1,0
		c0.1,0,0.2,0.1,0.4,0.4c-0.1,0.1-0.7,1.2-1.5,3.5l0.1,0.2l0.1,0c1.1-2.8,1.8-4.3,2.1-4.6c1.4-0.1,3.9-0.4,7.4-0.8l0.2-0.1
		c0,0.1,0,0.1,0.1,0.1l0.2,0l0.2-0.1c0,0.1,0,0.1,0.1,0.1l2.7-0.2c0.7-0.1,1-0.3,1-0.6c0-0.1,0.4-0.2,1.3-0.3c0.1,0,0.2,0,0.4,0.1
		c0-0.1,0.4-0.1,1.3-0.2c0-0.4,0.2-0.7,0.4-0.7l0-0.2c-0.2,0-0.5,0.1-0.8,0.2c-0.6,0-0.9-0.1-1.1-0.1c-0.1,0.1-0.3,0.1-0.3,0.1
		L74.2,54L74,54.1c0-0.1,0-0.1-0.1-0.1l-0.1,0l-0.2,0.1c0-0.1-0.2-0.1-0.6-0.2l-0.2,0.1l-0.5,0l0-0.1c2.4-0.3,3.6-0.6,3.5-1
		c0.1,0,0.2,0.1,0.2,0.2l0.7-0.2l0-0.2L71,53c0,0.1,0,0.1-0.1,0.1l-0.7-0.1c-0.2,0-0.3,0.1-0.4,0.2l-0.3-0.1
		c-0.7,0.1-1.3,0.1-1.6,0.3c-0.5,0-1,0-1.6,0l-1.3,0.1l-0.6-0.1c0-0.4,0.7-2.2,2.2-5.6c0.4-1.1,0.8-1.8,1.2-2.1c0.1,0,0.2,0,0.4,0.1
		l0.9-0.3l0.5,0.1c0.8-0.1,1.7-0.3,2.7-0.7c0.3,0,0.5,0,0.6,0l0.7-0.2l2.1-0.2c0.9-0.1,1.8-0.3,2.9-0.6l0-0.2c-0.4,0-0.6,0-0.6-0.2
		c0-0.3-0.3-0.4-0.8-0.4l0-0.2l0.6-0.2l1.5-0.1l0-0.2c-0.1,0-0.4,0-0.9,0l0-0.2l0.6,0c0.1,0,0.2-0.1,0.2-0.2c-0.8,0-1.2,0-1.2-0.1
		c-5.4,0.3-8.1,0.3-8.2,0.1c-0.1,0-0.2,0-0.3,0.1l-0.1-0.2c1.4-3.1,2.3-4.6,2.5-4.6c0,0.1,0,0.3-0.2,0.6l0,0.1l0.2,0
		c0.6-1.4,1-2.1,1.5-2.1c1.7-0.1-0.2-0.3,3.4-0.8c0.1,0.1,0.3,0.1,0.3,0.1c1.4-0.3,3.4-0.6,6-0.9l0-0.2l-1.4,0.1l0-0.2
		c0.2,0,0.3-0.1,0.4-0.2l0,0.1c0.1,0,0.2,0,0.3-0.1c0.2,0,0.4,0,0.5,0.1c0.5-0.1,0.8-0.2,1.1-0.2l0.8-0.1c0.2-0.1,0.3-0.2,0.3-0.4
		v-0.1c-0.2,0-0.5,0-0.8,0c0-0.1,0-0.2,0.2-0.2l1.6-0.1l0.7-0.2c0,0.1,0,0.1,0.1,0.1c0.1,0,0.2,0,0.3-0.1c0.4,0,0.6,0.1,0.7,0
		c0.3-0.3,0.6-0.5,1-0.7c-0.2-0.2-0.2-0.3-0.3-0.4l-1.1,0.1c0-0.1,0-0.2-0.1-0.3c0-0.1,0.2-0.2,0.7-0.3l0.2,0.1l0.2-0.1
		c0,0.1,0,0.1,0.1,0.1l0.2-0.1c0,0.1,0,0.1,0.1,0.1l0.1,0l0-0.2c-0.1,0-0.5,0-1.2,0l-0.2,0.1l0-0.1c-5,0.4-7.8,0.6-8.5,0.7
		c-0.1,0-0.4,0-1,0c0,0.1-0.1,0.1-0.2,0.1l-0.2-0.1L77,31.7c-0.2,0-0.5,0-0.9,0c-0.1,0.1-0.2,0.1-0.4,0.2c-0.2,0,3.9-0.2,3.8-0.3
		l-0.6,0.2l-0.1,0c-0.3,0-0.6,0-1,0c-0.1,0.1-0.3,0.1-0.5,0.2c-0.2,0-0.3,0-0.4-0.1C76.7,31.8,76.2,32,75.3,32.1L75.3,32.1z
		 M75.6,32.8c0,0.1,0.1,0.1,0.2,0.1l0,0.2l-0.2,0c-0.2,0-0.3,0-0.4-0.1c-0.1,0.1-0.3,0.1-0.4,0.2h0.1l-0.6-0.1l0-0.1
		C74.9,33,75.2,32.9,75.6,32.8L75.6,32.8z M76.1,32.7l0.1,0l0,0.2l-0.3,0C75.9,32.8,76,32.8,76.1,32.7L76.1,32.7z M77.4,32.6l0,0.1
		c-0.2,0-0.6,0.1-0.9,0.2l-0.1,0l0.1-0.2L77.4,32.6L77.4,32.6z M68.1,33.7l0.4,0l0-0.2l-0.4,0L68.1,33.7z M70.7,33.4l0.1,0l0.2,0.1
		c0,0.1-0.1,0.2-0.2,0.2l-0.4,0l0-0.1C70.4,33.5,70.5,33.5,70.7,33.4L70.7,33.4z M78.9,33.9L78.9,33.9l-0.7,0.2V34L78.9,33.9z
		 M76.8,34.2l0,0.1l-0.4,0l0-0.1L76.8,34.2z M78.8,34.4l1.5-0.2l0.8,0l0,0.1c-0.4,0-0.7,0.1-0.9,0.2c0-0.1-0.1-0.1-0.4-0.2l-1.2,0.3
		c-0.2-0.1-0.3-0.2-0.3-0.3L78.8,34.4L78.8,34.4z M77.3,34.7c0.1,0,0.2,0,0.2,0.2L76.9,35l0-0.2L77.3,34.7L77.3,34.7z M76,34.6
		l0,0.1l3.8-0.2l0-0.1L76,34.6z M76.3,34.9L76.3,34.9l-0.8,0.2V35L76.3,34.9z M70.8,39.3l0,0.1l0.2,0c0-0.1,0-0.2,0.1-0.3l0-0.2
		C71,38.8,70.9,39,70.8,39.3z M62.4,51.5L62.4,51.5c0,0.2,0,0.3-0.2,0.3l0-0.1C62.2,51.6,62.2,51.5,62.4,51.5z M62.2,51.9
		c0,0.2-0.1,0.7-0.4,1.6l-0.4,0c0-0.1,0.2-0.7,0.6-1.6L62.2,51.9L62.2,51.9z M66.1,55.3c0,0.1-0.2,0.2-0.6,0.4l-0.7,0l-0.2,0l0-0.2
		L66.1,55.3L66.1,55.3z M66.8,55.4L66.8,55.4l-0.6,0.1l0-0.1L66.8,55.4z"/>
</g>
</svg>
