<?xml version="1.0" encoding="utf-8"?>
<!-- Generator: Adobe Illustrator 21.1.0, SVG Export Plug-In . SVG Version: 6.00 Build 0)  -->
<svg version="1.1" id="Layer_1" xmlns="http://www.w3.org/2000/svg" xmlns:xlink="http://www.w3.org/1999/xlink" x="0px" y="0px"
	 viewBox="0 0 100 100" style="enable-background:new 0 0 100 100;" xml:space="preserve">
<style type="text/css">
	.st0{fill:#99425B;}
	.st1{fill:#FFFFFF;}
</style>
<g>
	<g>
		<path class="st0" d="M80.9,49.6c-0.1,0.1-4.2-0.6-9.2-0.9c-4.1-0.3-9-0.3-12.9,0c-3.2,0.2-7.4-1.4-7.9,0.5
			c-1.9,7.1-5.9,13.3-11,18.2c-3.9,3.6-8.3,6.4-13,8.1c-5.7-2.9-8.4-9.4-5.9-15.1c1.9-4.5,4.2-9.5,0-10.6c-3-0.8-4.7,2-5.8,5.1
			c-2.2,5.9-6.4,12-7.6,19.2c-1.3,7.6,0,15.7,6.6,20.3c15.4,10.6,32-6.6,49.6-10.9c6.4-1.6,13.4-1.3,19-4.6c4.2-2.4,7-6.5,7.8-11
			C91.7,60.5,87.9,53.2,80.9,49.6z"/>
		<path class="st1" d="M24.8,100c-4,0-8.1-1.1-12-3.8c-6.5-4.5-9.2-12.5-7.5-22.5c0.8-5,3-9.6,5-13.6c1-2.1,2-4.1,2.7-6.1
			c0.8-2.2,1.7-3.7,2.7-4.8c1.6-1.7,3.7-2.3,5.9-1.7c2,0.6,3,1.8,3.5,2.7c1.4,3-0.2,6.9-1.9,10.7l-0.1,0.3
			c-1.8,4.3-0.1,9.1,4.1,11.7c4.1-1.6,7.9-4,11.3-7.2c5.1-4.8,8.7-10.8,10.4-17.1c0.2-0.7,0.9-2.4,3.5-2.6c1-0.1,2.1,0.1,3.3,0.2
			c1.1,0.1,2.2,0.3,3.2,0.2c4.1-0.3,9.1-0.3,13.2,0c3.3,0.2,6.2,0.6,7.9,0.8c0.2,0,0.4,0.1,0.6,0.1l0.5-0.3l1.1,0.6
			c7.8,4.1,12.2,12.4,10.7,20.6c-0.9,5.3-4.2,9.9-8.9,12.6c-4.1,2.4-8.7,3-13.1,3.7c-2.2,0.3-4.4,0.6-6.4,1.1
			C58.7,87,53,89.7,47.6,92.4C40.1,96.2,32.4,100,24.8,100z M19.9,51.8c-0.6,0-1.5,0.5-2.7,3.8c-0.8,2.1-1.8,4.2-2.9,6.5
			C12.4,66,10.4,70,9.7,74.4c-0.8,4.7-1.1,13.4,5.6,18c9.2,6.4,19,1.5,30.3-4.1c5.6-2.8,11.5-5.7,17.5-7.2c2.3-0.6,4.6-0.9,6.9-1.2
			c4.2-0.6,8.2-1.2,11.5-3.1c3.6-2.1,6-5.5,6.7-9.5c1.1-6.1-2.1-12.4-7.9-15.6c-0.3,0-0.7-0.1-1.1-0.1c-1.7-0.2-4.4-0.6-7.6-0.8
			c-4-0.3-8.7-0.3-12.6,0c-1.4,0.1-2.8-0.1-4-0.2c-0.6-0.1-1.5-0.2-2-0.2c-2,6.9-5.9,13.3-11.5,18.5c-4.1,3.9-8.8,6.8-13.8,8.6
			l-0.9,0.3l-0.9-0.4c-6.9-3.5-9.9-11.3-7-18l0.1-0.3c0.9-2.2,2.5-5.8,1.9-6.9c-0.1-0.1-0.3-0.3-0.6-0.3
			C20.2,51.8,20.1,51.8,19.9,51.8z"/>
	</g>
	<path class="st1" d="M24.8,100c-4,0-8.1-1.1-12-3.8c-6.5-4.5-9.2-12.5-7.5-22.5c0.8-5,3-9.6,5-13.6c1-2.1,2-4.1,2.7-6.1
		c0.8-2.2,1.7-3.7,2.7-4.8c1.6-1.7,3.7-2.3,5.9-1.7c2,0.6,3,1.8,3.5,2.7c1.4,3-0.2,6.9-1.9,10.7l-0.1,0.3c-1.8,4.3-0.1,9.1,4.1,11.7
		c4.1-1.6,7.9-4,11.3-7.2c5.1-4.8,8.7-10.8,10.4-17.1l4.4,1.2c-1.9,7.2-5.9,13.8-11.7,19.2c-4.1,3.9-8.8,6.8-13.8,8.6l-0.9,0.3
		l-0.9-0.4c-6.9-3.5-9.9-11.3-7-18l0.1-0.3c0.9-2.2,2.5-5.8,1.9-6.9c-0.1-0.1-0.3-0.3-0.6-0.3c-0.5-0.1-1.5-0.4-3.1,3.7
		c-0.8,2.1-1.8,4.2-2.9,6.5C12.4,66,10.4,70,9.7,74.4c-0.8,4.7-1.1,13.4,5.6,18c9.2,6.4,19,1.5,30.3-4.1c5.6-2.8,11.5-5.7,17.5-7.2
		c2.3-0.6,4.6-0.9,6.9-1.2c4.2-0.6,8.2-1.2,11.5-3.1c3.6-2.1,6-5.5,6.7-9.5c1.1-6.3-2.3-12.6-8.3-15.8l2.1-4
		c7.8,4.1,12.2,12.4,10.7,20.6c-0.9,5.3-4.2,9.9-8.9,12.6c-4.1,2.4-8.7,3-13.1,3.7c-2.2,0.3-4.4,0.6-6.4,1.1
		C58.7,87,53,89.7,47.6,92.4C40.1,96.2,32.4,100,24.8,100z"/>
	<polygon class="st0" points="65,20.7 77.3,45.9 92.1,2.3 37.8,2.3 52.5,45.8 	"/>
	<path class="st1" d="M77.7,51.9l-12.7-26L52.1,51.8L34.6,0h60.7L77.7,51.9z M65,15.6l12,24.4l12-35.4h-48l12,35.4L65,15.6z"/>
	<circle class="st0" cx="50" cy="49.2" r="9.3"/>
	<path class="st1" d="M50,60.8c-6.4,0-11.6-5.2-11.6-11.6c0-6.4,5.2-11.6,11.6-11.6s11.6,5.2,11.6,11.6C61.6,55.6,56.4,60.8,50,60.8
		z M50,42.2c-3.9,0-7,3.2-7,7c0,3.9,3.2,7,7,7s7-3.2,7-7C57,45.4,53.9,42.2,50,42.2z"/>
	<g>
		<circle class="st0" cx="80.3" cy="49.2" r="9.3"/>
		<path class="st1" d="M80.3,60.8c-6.4,0-11.6-5.2-11.6-11.6c0-6.4,5.2-11.6,11.6-11.6c6.4,0,11.6,5.2,11.6,11.6
			C91.9,55.6,86.7,60.8,80.3,60.8z M80.3,42.2c-3.9,0-7,3.2-7,7c0,3.9,3.2,7,7,7c3.9,0,7-3.2,7-7C87.3,45.4,84.2,42.2,80.3,42.2z"/>
	</g>
	<path class="st1" d="M80.3,60.8c-6.4,0-11.6-5.2-11.6-11.6c0-6.4,5.2-11.6,11.6-11.6c6.4,0,11.6,5.2,11.6,11.6
		C91.9,55.6,86.7,60.8,80.3,60.8z M80.3,42.2c-3.9,0-7,3.2-7,7c0,3.9,3.2,7,7,7c3.9,0,7-3.2,7-7C87.3,45.4,84.2,42.2,80.3,42.2z"/>
	<circle class="st0" cx="19.5" cy="49.3" r="9.3"/>
	<path class="st1" d="M19.5,60.9C13.2,60.9,8,55.7,8,49.3c0-6.4,5.2-11.6,11.6-11.6s11.6,5.2,11.6,11.6
		C31.1,55.7,25.9,60.9,19.5,60.9z M19.5,42.3c-3.9,0-7,3.2-7,7c0,3.9,3.2,7,7,7c3.9,0,7-3.2,7-7C26.6,45.4,23.4,42.3,19.5,42.3z"/>
</g>
</svg>
