<?xml version="1.0" encoding="utf-8"?>
<!-- Generator: Adobe Illustrator 21.1.0, SVG Export Plug-In . SVG Version: 6.00 Build 0)  -->
<svg version="1.1"
	 id="Layer_1" inkscape:export-filename="/Users/boneskull/Downloads/mocha-logo-192.png" inkscape:export-xdpi="90" inkscape:export-ydpi="90" inkscape:version="0.91 r13725" sodipodi:docname="mocha-logo.svg" xmlns:cc="http://creativecommons.org/ns#" xmlns:dc="http://purl.org/dc/elements/1.1/" xmlns:inkscape="http://www.inkscape.org/namespaces/inkscape" xmlns:rdf="http://www.w3.org/1999/02/22-rdf-syntax-ns#" xmlns:sodipodi="http://sodipodi.sourceforge.net/DTD/sodipodi-0.dtd" xmlns:svg="http://www.w3.org/2000/svg"
	 xmlns="http://www.w3.org/2000/svg" xmlns:xlink="http://www.w3.org/1999/xlink" x="0px" y="0px" viewBox="0 0 100 100"
	 style="enable-background:new 0 0 100 100;" xml:space="preserve">
<style type="text/css">
	.st0{fill:#8D6748;}
	.st1{fill:#FFFFFF;}
</style>
<title  id="title4160">Mocha Logo</title>
<sodipodi:namedview  bordercolor="#666666" borderopacity="1" fit-margin-bottom="5" fit-margin-left="5" fit-margin-right="5" fit-margin-top="5" gridtolerance="10" guidetolerance="10" id="namedview28" inkscape:current-layer="Layer_1" inkscape:cx="96" inkscape:cy="98.137283" inkscape:pageopacity="0" inkscape:pageshadow="2" inkscape:window-height="1031" inkscape:window-maximized="0" inkscape:window-width="1920" inkscape:window-x="1360" inkscape:window-y="23" inkscape:zoom="1" objecttolerance="10" pagecolor="#ffffff" showgrid="false">
	</sodipodi:namedview>
<g>
	<path id="XMLID_229_" inkscape:connector-curvature="0" class="st0" d="M91.3,76.9L52.7,99.3c-1.7,1-3.7,1-5.4,0L8.7,76.9
		C7,76,6,74.2,6,72.3V27.7c0-1.9,1-3.7,2.7-4.6L47.3,0.7c1.7-1,3.7-1,5.4,0l38.6,22.3c1.7,1,2.7,2.7,2.7,4.6v44.7
		C94,74.2,92.9,76,91.3,76.9L91.3,76.9z"/>
	<path id="XMLID_262_" inkscape:connector-curvature="0" class="st1" d="M49.9,8.4L49.9,8.4c0.5,0,1,0.2,1.5,0.4l33.4,19.3
		c0.9,0.5,1.5,1.6,1.5,2.6v38.5c0,1.1-0.6,2.1-1.5,2.6L51.4,91.2c-0.5,0.3-1,0.4-1.5,0.4s-1.1-0.2-1.5-0.4L15.1,71.9
		c-0.9-0.5-1.5-1.6-1.5-2.6V30.7c0-1.1,0.6-2.1,1.5-2.6L48.4,8.8C48.9,8.6,49.5,8.4,49.9,8.4 M49.9,6.8c-0.8,0-1.6,0.2-2.3,0.6
		L14.3,26.7c-1.4,0.8-2.3,2.4-2.3,4v38.5c0,1.7,0.9,3.2,2.3,4l33.4,19.3c0.7,0.4,1.5,0.6,2.3,0.6c0.8,0,1.6-0.2,2.3-0.6l33.4-19.3
		c1.4-0.8,2.3-2.4,2.3-4V30.7c0-1.7-0.9-3.2-2.3-4L52.3,7.4C51.6,7,50.8,6.8,49.9,6.8C49.9,6.8,49.9,6.8,49.9,6.8z"/>
	<g id="XMLID_228_" transform="matrix(0.95420602,0,0,0.95420602,5.4935566,-4.7641653)">
		<g id="XMLID_223_">
			<g id="XMLID_295_">
				<path id="path8" inkscape:connector-curvature="0" class="st1" d="M51.6,37.1c0-0.3-0.2-0.6-0.6-0.6h-5.3h-5.3
					c-0.3,0-0.6,0.2-0.6,0.6c0,1.9,0.3,8.5,3.1,11.7c0.1,0.1,0.2,0.2,0.4,0.2h4.7c0.2,0,0.3-0.1,0.4-0.2
					C51.3,45.7,51.6,39.1,51.6,37.1z M47.4,47.4h-3.3c-0.2,0-0.3-0.1-0.4-0.2c-1.9-2.3-2.1-6.8-2.2-8.3c0-0.3,0.2-0.6,0.6-0.6h3.7
					h3.7c0.3,0,0.6,0.2,0.6,0.6c0,1.6-0.3,6-2.2,8.3C47.7,47.3,47.6,47.4,47.4,47.4z"/>
			</g>
		</g>
		<path id="XMLID_225_" inkscape:connector-curvature="0" class="st1" d="M46.8,35.5c0,0,2-1.2,0.8-3.3c-0.7-1.1-1.1-2.1-0.8-2.5
			c-0.7,0.9-2,1.9-0.6,3.9C46.6,34,46.8,35.1,46.8,35.5z"/>
		<path id="XMLID_224_" inkscape:connector-curvature="0" class="st1" d="M44.5,35.6c0,0,1.4-0.8,0.5-2.3c-0.5-0.7-0.7-1.4-0.5-1.6
			c-0.5,0.6-1.3,1.2-0.4,2.6C44.4,34.7,44.5,35.4,44.5,35.6z"/>
		<path id="XMLID_227_" inkscape:connector-curvature="0" class="st1" d="M49.1,42.1c-0.2,1.5-0.7,3.3-1.6,4.4
			c-0.1,0.1-0.2,0.2-0.3,0.2h-2.8c-0.1,0-0.3-0.1-0.3-0.2c-0.7-0.8-1.1-2-1.4-3.2c0,0,3.3,0.5,5.1-0.2
			C49.1,42.7,49.1,42.1,49.1,42.1z"/>
	</g>
	<g id="g13" transform="matrix(0.95420602,0,0,0.95420602,5.4935566,-4.7641653)">
		<path id="path15" inkscape:connector-curvature="0" class="st1" d="M12.2,51.3h2.1l3.4,5.3l3.4-5.3h2.1v11.3h-2v-8l-3.5,5.3h-0.1
			l-3.5-5.2v8h-2V51.3z"/>
		<path id="path17" inkscape:connector-curvature="0" class="st1" d="M33.4,62.7c-0.8,0-1.6-0.2-2.4-0.5c-0.7-0.3-1.4-0.7-1.9-1.2
			c-0.5-0.5-0.9-1.1-1.2-1.9c-0.3-0.7-0.5-1.5-0.5-2.3v-0.1c0-0.8,0.2-1.5,0.5-2.3c0.3-0.7,0.7-1.3,1.2-1.9c0.5-0.5,1.1-1,1.9-1.2
			c0.7-0.3,1.5-0.5,2.4-0.5c0.8,0,1.6,0.2,2.4,0.5c0.7,0.3,1.4,0.7,1.9,1.2c0.5,0.5,0.9,1.1,1.2,1.9c0.3,0.7,0.5,1.5,0.5,2.3v0.1
			c0,0.8-0.2,1.5-0.5,2.3c-0.3,0.7-0.7,1.3-1.2,1.9c-0.5,0.5-1.1,1-1.9,1.2C35,62.6,34.2,62.7,33.4,62.7z M33.4,60.9
			c0.6,0,1.1-0.1,1.5-0.3c0.5-0.2,0.8-0.5,1.2-0.8s0.6-0.8,0.8-1.2c0.2-0.5,0.3-1,0.3-1.5v-0.1c0-0.6-0.1-1.1-0.3-1.6
			c-0.2-0.5-0.5-0.9-0.8-1.3c-0.3-0.3-0.7-0.6-1.2-0.8c-0.5-0.2-1-0.3-1.5-0.3c-0.6,0-1.1,0.1-1.5,0.3c-0.5,0.2-0.8,0.5-1.2,0.8
			s-0.6,0.8-0.8,1.2c-0.2,0.5-0.3,1-0.3,1.5v0.1c0,0.6,0.1,1.1,0.3,1.6c0.2,0.5,0.5,0.9,0.8,1.3c0.3,0.3,0.7,0.6,1.2,0.8
			C32.3,60.8,32.9,60.9,33.4,60.9z"/>
		<path id="path19" inkscape:connector-curvature="0" class="st1" d="M48.8,62.7c-0.8,0-1.6-0.2-2.3-0.5c-0.7-0.3-1.3-0.7-1.8-1.2
			c-0.5-0.5-0.9-1.1-1.2-1.9c-0.3-0.7-0.5-1.5-0.5-2.3v-0.1c0-0.8,0.2-1.6,0.5-2.3s0.7-1.3,1.2-1.9c0.5-0.5,1.1-1,1.9-1.2
			S48.1,51,49,51c0.5,0,1,0.1,1.4,0.1c0.5,0.1,0.8,0.2,1.2,0.3c0.3,0.2,0.7,0.3,1,0.6c0.3,0.2,0.6,0.5,0.8,0.7l-1.3,1.5
			c-0.5-0.4-0.9-0.7-1.4-1c-0.5-0.3-1.1-0.4-1.7-0.4c-0.6,0-1,0.1-1.5,0.3s-0.8,0.5-1.2,0.8s-0.6,0.8-0.8,1.2
			c-0.2,0.5-0.3,1-0.3,1.5v0.1c0,0.6,0.1,1.1,0.3,1.6c0.2,0.5,0.5,0.9,0.8,1.3c0.3,0.3,0.7,0.7,1.2,0.8c0.5,0.2,1,0.3,1.5,0.3
			c0.7,0,1.3-0.1,1.7-0.4s1-0.6,1.5-1.1l1.3,1.3c-0.3,0.3-0.6,0.6-0.9,0.8c-0.3,0.3-0.7,0.5-1,0.6c-0.3,0.2-0.8,0.3-1.2,0.4
			C49.8,62.7,49.3,62.7,48.8,62.7L48.8,62.7z"/>
		<path id="path21" inkscape:connector-curvature="0" class="st1" d="M57.4,51.3h2v4.7h5.4v-4.7h2v11.3h-2v-4.7h-5.4v4.7h-2V51.3z"
			/>
		<path id="path23" inkscape:connector-curvature="0" class="st1" d="M75.4,51.2h1.8l5,11.3h-2.1L79,59.8h-5.3l-1.2,2.7h-2
			L75.4,51.2z M78.2,58.1l-1.9-4.5l-1.9,4.5H78.2L78.2,58.1z"/>
	</g>
	<rect id="XMLID_444_" x="15.8" y="58.3" class="st1" width="68.4" height="0.6"/>
	<path id="XMLID_446_" inkscape:connector-curvature="0" class="st1" d="M84.2,38.1H55.1c0,0.2-0.1,0.4-0.1,0.6h29.1L84.2,38.1
		L84.2,38.1z"/>
	<path id="XMLID_448_" inkscape:connector-curvature="0" class="st1" d="M15.8,38.1v0.6h27.4c0-0.2-0.1-0.4-0.1-0.6
		C43.2,38.1,15.8,38.1,15.8,38.1z"/>
</g>
</svg>
