<?xml version="1.0" encoding="utf-8"?>
<!-- Generator: Adobe Illustrator 21.1.0, SVG Export Plug-In . SVG Version: 6.00 Build 0)  -->
<svg version="1.1" id="Layer_1" xmlns="http://www.w3.org/2000/svg" xmlns:xlink="http://www.w3.org/1999/xlink" x="0px" y="0px"
	 viewBox="0 0 100 100" style="enable-background:new 0 0 100 100;" xml:space="preserve">
<style type="text/css">
	.st0{fill:#62DAFB;}
	.st1{fill:#424242;}
</style>
<g>
	<path class="st0" d="M74.3,58.4c-1.9,0.6-3.9,0.8-5.9,1.1c-0.5,0.1-1.1,0-1.6,0.1c-4.2,0.6-5.8,2.3-6.4,6.7
		c-0.3,2.4-0.9,4.6-2.3,6.7c-2.3,3.4-6.8,5-10.6,3.6c-4.1-1.4-6.6-5.2-6.3-9.4c0.3-3.8,3.3-7.2,7.6-8.2c2-0.5,4.1-0.6,6.1-0.8
		c3.8-0.3,5.5-2,6.1-5.8c0.4-2.2,0-4.2-0.4-6.2c-0.7-3.1-3-4.6-6.8-4.8c-2.1-0.2-4.2-0.5-6.2-1c-4.2-1.3-6.6-4.9-6.4-9.1
		c0.2-3.7,3.2-7.4,6.8-8.2c4.3-1,8.6,0.7,10.4,4.6c1,2,1.5,4.3,1.9,6.5c0.7,4,2.3,5.5,6.2,6c2.6,0.3,5.2,0.6,7.6,1.4
		c3.7,1.2,6,4.6,6,8.5C80.2,53.8,77.9,57.3,74.3,58.4z"/>
	<path class="st1" d="M30.5,59c-5,0-9.1-4.1-9.1-9.1c0-5,4.1-9.1,9.1-9.1c5,0,9.1,4.1,9.1,9.1C39.6,55,35.5,59,30.5,59z"/>
	<path class="st1" d="M9,77.2c-5,0-9-4.1-9-9.1c0-5,4.1-9,9.1-9c5,0,9,4.1,9,9.1C18.1,73.1,14,77.2,9,77.2z"/>
	<path class="st1" d="M91,77.2c-5,0-9.1-4-9.1-9c0-5,4-9.1,9-9.1c5,0,9.1,4,9.1,9C100,73,96,77.2,91,77.2z"/>
</g>
</svg>
