<?xml version="1.0" encoding="utf-8"?>
<!-- Generator: Adobe Illustrator 21.1.0, SVG Export Plug-In . SVG Version: 6.00 Build 0)  -->
<svg version="1.1" id="Layer_2_1_" xmlns="http://www.w3.org/2000/svg" xmlns:xlink="http://www.w3.org/1999/xlink" x="0px" y="0px"
	 viewBox="0 0 100 100" style="enable-background:new 0 0 100 100;" xml:space="preserve">
<style type="text/css">
	.st0{fill:#61DAFB;}
</style>
<g>
	<path class="st0" d="M100,50c0-6.6-8.3-12.9-21-16.8c2.9-13,1.6-23.3-4.1-26.6c-1.3-0.8-2.9-1.1-4.6-1.1V10c0.9,0,1.7,0.2,2.3,0.5
		c2.8,1.6,4,7.6,3,15.4c-0.2,1.9-0.6,3.9-1,6c-4-1-8.4-1.7-12.9-2.2c-2.8-3.8-5.6-7.2-8.5-10.2c6.6-6.2,12.9-9.6,17.1-9.6V5.5l0,0
		c-5.6,0-12.9,4-20.4,10.9C42.5,9.5,35.2,5.6,29.6,5.6v4.5c4.2,0,10.5,3.4,17.1,9.5c-2.9,3-5.7,6.4-8.4,10.2c-4.6,0.5-9,1.2-13,2.2
		c-0.5-2-0.8-4-1.1-5.9c-1-7.8,0.2-13.8,3-15.5c0.6-0.4,1.4-0.5,2.3-0.5V5.6l0,0c-1.7,0-3.3,0.4-4.6,1.1c-5.7,3.3-7,13.6-4.1,26.5
		C8.3,37.1,0,43.4,0,50c0,6.6,8.3,12.9,21,16.8c-2.9,13-1.6,23.3,4.1,26.6c1.3,0.8,2.9,1.1,4.6,1.1c5.6,0,12.9-4,20.4-10.9
		c7.4,6.9,14.8,10.8,20.4,10.8c1.7,0,3.3-0.4,4.6-1.1c5.7-3.3,7-13.6,4.1-26.5C91.7,62.9,100,56.6,100,50z M73.5,36.4
		c-0.8,2.6-1.7,5.3-2.8,8.1c-0.8-1.6-1.7-3.3-2.7-4.9c-0.9-1.6-1.9-3.2-2.9-4.8C68,35.2,70.8,35.8,73.5,36.4z M64.1,58.1
		c-1.6,2.8-3.2,5.4-4.9,7.8c-3,0.3-6.1,0.4-9.2,0.4c-3.1,0-6.2-0.1-9.2-0.4c-1.7-2.4-3.3-5-4.9-7.7c-1.5-2.7-3-5.4-4.2-8.1
		c1.3-2.7,2.7-5.5,4.2-8.1c1.6-2.8,3.2-5.4,4.9-7.8c3-0.3,6.1-0.4,9.2-0.4c3.1,0,6.2,0.1,9.2,0.4c1.7,2.4,3.3,5,4.9,7.7
		c1.5,2.7,3,5.4,4.2,8.1C67.1,52.7,65.7,55.5,64.1,58.1z M70.7,55.5c1.1,2.7,2,5.5,2.8,8.1c-2.7,0.7-5.5,1.2-8.4,1.6
		c1-1.6,2-3.2,2.9-4.8C69,58.8,69.9,57.1,70.7,55.5z M50,77.2c-1.9-2-3.8-4.1-5.7-6.5c1.8,0.1,3.7,0.1,5.6,0.1c1.9,0,3.8,0,5.7-0.1
		C53.8,73.1,51.9,75.3,50,77.2z M34.9,65.2c-2.9-0.4-5.7-1-8.4-1.6c0.8-2.6,1.7-5.3,2.8-8.1c0.8,1.6,1.7,3.3,2.7,4.9
		C32.9,62.1,33.9,63.7,34.9,65.2z M49.9,22.8c1.9,2,3.8,4.1,5.7,6.5c-1.8-0.1-3.7-0.1-5.6-0.1c-1.9,0-3.8,0-5.7,0.1
		C46.2,26.9,48.1,24.8,49.9,22.8z M34.9,34.8c-1,1.6-2,3.2-2.9,4.8c-0.9,1.6-1.8,3.3-2.6,4.9c-1.1-2.7-2-5.5-2.8-8.1
		C29.1,35.8,31.9,35.2,34.9,34.8z M16.4,60.3C9.2,57.2,4.5,53.2,4.5,50c0-3.2,4.7-7.3,11.9-10.3c1.8-0.8,3.7-1.4,5.6-2.1
		c1.2,4,2.7,8.2,4.6,12.4c-1.9,4.2-3.4,8.4-4.5,12.4C20.1,61.8,18.2,61.1,16.4,60.3z M27.4,89.5c-2.8-1.6-4-7.6-3-15.4
		c0.2-1.9,0.6-3.9,1-6c4,1,8.4,1.7,12.9,2.2c2.8,3.8,5.6,7.2,8.5,10.2C40.2,86.6,33.9,90,29.7,90C28.8,90,28,89.8,27.4,89.5z
		 M75.7,73.9c1,7.8-0.2,13.8-3,15.5c-0.6,0.4-1.4,0.5-2.3,0.5c-4.2,0-10.5-3.4-17.1-9.5c2.9-3,5.7-6.4,8.4-10.2
		c4.6-0.5,9-1.2,13-2.2C75.1,70,75.5,72,75.7,73.9z M83.6,60.3c-1.8,0.8-3.7,1.4-5.6,2.1c-1.2-4-2.7-8.2-4.6-12.4
		c1.9-4.2,3.4-8.4,4.5-12.4c2,0.6,3.9,1.3,5.7,2.1c7.2,3.1,11.9,7.1,11.9,10.3C95.5,53.2,90.8,57.3,83.6,60.3z"/>
	<path class="st0" d="M29.6,5.6L29.6,5.6L29.6,5.6z"/>
	<circle class="st0" cx="50" cy="50" r="9.3"/>
	<path class="st0" d="M70.3,5.5L70.3,5.5L70.3,5.5z"/>
</g>
</svg>
