<?xml version="1.0" encoding="utf-8"?>
<!-- Generator: Adobe Illustrator 21.1.0, SVG Export Plug-In . SVG Version: 6.00 Build 0)  -->
<svg version="1.1" id="Layer_1" xmlns="http://www.w3.org/2000/svg" xmlns:xlink="http://www.w3.org/1999/xlink" x="0px" y="0px"
	 viewBox="0 0 100 100" style="enable-background:new 0 0 100 100;" xml:space="preserve">
<style type="text/css">
	.st0{fill:#FFFFFF;}
	.st1{fill:#8ED6FB;}
	.st2{fill:#1C78C0;}
</style>
<path class="st0" d="M49.9,0L94,25v50l-44.2,25L5.7,75V25L49.9,0z"/>
<path class="st1" d="M86.2,73.3L51.3,93V77.6L73,65.7L86.2,73.3L86.2,73.3z M88.5,71.1V29.9l-12.7,7.4v26.5L88.5,71.1L88.5,71.1z
	 M13.4,73.3L48.3,93V77.6L26.5,65.7L13.4,73.3z M11,71.1V29.9l12.7,7.4v26.5L11,71.1z M12.5,27.2L48.3,7v14.8L25.4,34.5l-0.2,0.1
	C25.2,34.6,12.5,27.2,12.5,27.2z M87,27.2L51.3,7v14.8l22.9,12.6l0.2,0.1L87,27.2L87,27.2z"/>
<path class="st2" d="M48.3,74.1L26.8,62.4V39l21.4,12.4V74.1z M51.3,74.1l21.4-11.8V39L51.3,51.4V74.1z M28.3,36.3l21.5-11.8
	l21.5,11.8L49.8,48.7L28.3,36.3L28.3,36.3z"/>
</svg>
